<svg width="24" height="24" viewBox="0 0 24 24" fill="none" xmlns="http://www.w3.org/2000/svg">
<path d="M16.272 7.57881C16.4367 7.79209 16.4038 8.10381 16.1896 8.26788C16.1238 8.3171 14.7402 9.39992 11.9236 9.46554C11.8412 9.46554 11.7589 9.46554 11.6765 9.46554C8.97525 9.46554 7.82226 8.30069 7.77285 8.25147C7.57519 8.05459 7.59166 7.74287 7.77285 7.5624C7.9705 7.38193 8.28345 7.38193 8.46464 7.5624C8.48111 7.57881 9.45291 8.51397 11.8742 8.48116C14.3284 8.41553 15.5473 7.49678 15.5473 7.49678C15.7614 7.33272 16.0743 7.36553 16.2391 7.57881H16.272ZM22.9099 16.0937L21.2298 21.6555C21.164 21.8687 20.9828 22 20.7522 22L3.34209 21.9016C3.12796 21.9016 2.94678 21.7703 2.88089 21.557L1.11847 16.0937C1.11847 16.0937 0.920815 15.6343 1.03611 15.4375C1.18435 15.2078 1.48084 15.1257 1.71143 15.2734L2.35381 15.6671C2.00792 14.5679 1.90909 13.2882 2.10674 11.8117C2.10674 11.7788 2.45264 2.87019 12.3189 3.00144C21.6416 3.18191 21.8722 11.9101 21.8722 11.9921C21.8722 12.0413 22.1852 13.7804 21.7404 15.6179L22.284 15.2898C22.5146 15.1585 22.8275 15.2242 22.9593 15.4539C23.0746 15.6343 22.9099 16.0609 22.8934 16.0937H22.9099ZM20.9828 12.0906C20.9828 11.6804 20.7357 4.06785 12.3189 3.90379C3.35856 3.80535 3.0456 11.5656 3.02913 11.8937C2.76559 13.764 2.99619 15.2406 3.63857 16.3562L5.41746 15.2898C5.5657 15.1914 5.76336 15.1914 5.92807 15.2898L7.78932 16.4054L9.6341 15.2898C9.78234 15.1914 9.97999 15.1914 10.1447 15.2898L12.006 16.4054L13.8672 15.2898C14.0154 15.1914 14.2131 15.1914 14.3778 15.2898L16.2391 16.4054L18.1003 15.2898C18.265 15.1914 18.4462 15.1914 18.6109 15.2898L20.4722 16.4054L20.6039 16.3398C21.4275 14.4203 21.0322 12.1234 21.0322 12.0906H20.9828Z" fill="black"/>
</svg>
